HIERARCHY
ROOT hip
{
	OFFSET 0.000000 0.000000 0.000000 
	CHANNELS 6 Xposition Yposition Zposition Xrotation Zrotation Yrotation
	JOINT abdomen
	{
		OFFSET 0.000000 3.402643 0.000000 
		CHANNELS 3 Xrotation Zrotation Yrotation
		JOINT chest
		{
			OFFSET 0.000000 8.438565 -0.680529 
			CHANNELS 3 Xrotation Zrotation Yrotation
			JOINT neck
			{
				OFFSET 0.000000 10.207942 -0.272212 
				CHANNELS 3 Xrotation Zrotation Yrotation
				JOINT head
				{
					OFFSET 0.000000 3.130431 0.000000 
					CHANNELS 3 Xrotation Zrotation Yrotation
					End Site
					{
						OFFSET 0.000000 3.130435 0.000000 
					}
				}
			}
			JOINT lCollar
			{
				OFFSET 3.470700 6.669187 -0.816635 
				CHANNELS 3 Yrotation Zrotation Xrotation
				JOINT lShldr
				{
					OFFSET 3.198488 0.000000 0.000000 
					CHANNELS 3 Zrotation Yrotation Xrotation
					JOINT lForeArm
					{
						OFFSET 10.139888 0.000000 0.000000 
						CHANNELS 3 Yrotation Zrotation Xrotation
						JOINT lHand
						{
							OFFSET 8.370511 0.000000 0.000000 
							CHANNELS 3 Zrotation Yrotation Xrotation
							End Site
							{
								OFFSET 4.083176 0.000000 0.000000 
							}
						}
					}
				}
			}
			JOINT rCollar
			{
				OFFSET -3.470700 6.669187 -0.816635 
				CHANNELS 3 Yrotation Zrotation Xrotation
				JOINT rShldr
				{
					OFFSET -3.198488 0.000000 0.000000 
					CHANNELS 3 Zrotation Yrotation Xrotation
					JOINT rForeArm
					{
						OFFSET -10.139888 0.000000 0.000000 
						CHANNELS 3 Yrotation Zrotation Xrotation
						JOINT rHand
						{
							OFFSET -8.370511 0.000000 0.000000 
							CHANNELS 3 Zrotation Yrotation Xrotation
							End Site
							{
								OFFSET -4.083176 0.000000 0.000000 
							}
						}
					}
				}
			}
		}
	}
	JOINT lThigh
	{
		OFFSET 5.308129 -1.633274 1.361059 
		CHANNELS 3 Xrotation Zrotation Yrotation
		JOINT lShin
		{
			OFFSET -2.041588 -20.007561 0.000000 
			CHANNELS 3 Xrotation Zrotation Yrotation
			JOINT lFoot
			{
				OFFSET 0.000000 -19.190928 -1.224953 
				CHANNELS 3 Xrotation Yrotation Zrotation
				End Site
				{
					OFFSET 0.000000 -2.449906 4.627600 
				}
			}
		}
	}
	JOINT rThigh
	{
		OFFSET -5.308129 -1.633274 1.361059 
		CHANNELS 3 Xrotation Zrotation Yrotation
		JOINT rShin
		{
			OFFSET 2.041588 -20.007561 0.000000 
			CHANNELS 3 Xrotation Zrotation Yrotation
			JOINT rFoot
			{
				OFFSET 0.000000 -19.190928 -1.224953 
				CHANNELS 3 Xrotation Yrotation Zrotation
				End Site
				{
					OFFSET 0.000000 -2.449906 4.627600 
				}
			}
		}
	}
}
MOTION
Frames: 16
Frame Time: 0.033333
-21.102287 42.783268 -33.604362 5.545270 1.004810 151.813995 -0.019530 -0.019644 -0.019419 0.019532 -0.007412 0.058932 -0.028776 0.852376 0.002171 16.086700 -15.463100 19.244499 13.404282 5.976474 8.929759 -20.397800 -8.581990 -58.701500 -23.047001 -2.501720 56.601700 53.976799 31.676600 3.528100 6.084363 9.196844 8.387713 56.570900 10.587200 24.694799 30.061100 -0.506830 13.105800 34.894199 -38.528301 -3.864200 -20.771248 -1.287586 -5.686883 40.235027 0.556518 -6.237819 -12.488500 -1.013878 3.406114 -11.985182 0.117495 -5.636783 54.911175 -0.937502 -0.224115 -10.748178 0.453662 -0.427199 
-21.538046 42.804283 -34.054276 6.047450 -0.685612 146.731995 -0.019530 -0.019644 -0.019419 0.019534 -0.013668 -0.097194 -0.028078 -1.301680 -0.019869 14.140300 -19.411600 23.956699 18.078371 3.806841 8.328241 -19.362499 -7.997610 -58.993599 -23.394300 -2.446050 56.094299 54.164001 32.748299 4.189970 10.995761 7.191176 8.811706 58.117500 12.592800 31.575001 36.449799 -0.899658 8.287320 35.018501 -32.717400 -1.679130 -19.707481 -3.503747 -5.712084 38.518936 0.513335 -4.831773 -12.447639 -0.971712 3.089644 -13.977209 -2.898451 -6.775366 57.065754 -0.890489 -4.043029 -10.013734 0.059461 2.351382 
-21.887981 42.851120 -34.391628 6.729860 -2.320520 142.899002 -0.019530 -0.019644 -0.019419 0.019544 -0.017579 -0.194773 -0.031103 -3.324390 -0.089100 12.786500 -22.238899 27.454000 21.609701 1.534449 8.005503 -18.264799 -7.685450 -59.466999 -23.494301 -2.442830 56.121601 54.321899 33.400799 4.599460 14.531137 5.086737 9.367077 60.892200 14.074800 33.438599 41.431499 -1.203140 4.837610 35.335499 -23.296000 1.648300 -18.658560 -5.613967 -5.875670 36.153179 0.419228 -3.861765 -12.099112 -0.901602 2.928641 -15.550766 -5.641299 -9.818636 58.076954 -0.811898 -8.473566 -9.747074 -0.317534 5.459691 
-22.149502 42.924034 -34.612038 7.656230 -3.667690 140.347000 -0.019530 -0.019644 -0.019419 0.019555 -0.020316 -0.263078 -0.029931 -5.120860 -0.168939 12.484800 -24.022301 29.568001 24.093107 -0.579471 8.149831 -17.370899 -7.747460 -60.607399 -23.555500 -2.510600 57.041199 54.218399 33.482498 4.648810 16.773390 3.104520 10.216934 65.148903 15.006300 32.052101 43.930401 -1.372120 1.928000 37.030300 -12.394000 5.453590 -17.242510 -7.478513 -6.355630 33.273983 0.351177 -3.278979 -11.515812 -0.863183 2.794506 -16.336010 -8.035697 -14.026799 58.071217 -0.713920 -11.609772 -10.082726 -0.580342 7.520089 
-22.335648 43.007397 -34.728306 8.801260 -4.602470 138.738007 -0.019530 -0.019644 -0.019419 0.019574 -0.014078 -0.351283 -0.036307 -6.675760 -0.208887 13.116900 -25.078600 30.570000 25.893509 -2.398697 8.898490 -16.788200 -8.247450 -62.612701 -23.836000 -2.610590 58.649899 53.706402 33.054298 4.339450 18.129160 1.206528 11.509179 68.647774 15.528760 29.272301 44.386398 -1.458740 -1.631900 39.824902 -3.169620 9.073310 -15.307233 -9.039599 -7.072337 30.011971 0.292577 -2.735030 -10.824232 -0.788432 2.667557 -16.284248 -10.082213 -18.348412 57.543682 -0.637539 -12.749531 -10.802261 -0.675697 8.072807 
-22.466745 43.076481 -34.760098 10.049700 -5.194920 137.705002 -0.019530 -0.019644 -0.019419 0.019611 -0.019161 -0.478135 -0.051608 -8.019940 -0.189226 14.143700 -25.708401 30.970600 27.376919 -3.999477 10.086497 -16.359900 -8.979070 -64.937798 -24.461399 -2.689710 59.970600 52.983101 32.482201 3.936220 19.151087 -0.479710 13.135416 70.847801 15.712201 26.599001 44.120499 -1.534260 -6.574940 42.456100 2.566620 11.767200 -13.210443 -10.349928 -7.757324 26.932356 0.224721 -2.022516 -10.141988 -0.740836 2.570341 -15.592568 -11.801374 -21.695772 56.834908 -0.654521 -12.167233 -11.773162 -0.654483 7.626672 
-22.564369 43.152203 -34.709995 11.237600 -5.635970 137.011002 -0.019530 -0.019644 -0.019419 0.019667 -0.025027 -0.624503 -0.066516 -9.209290 -0.147509 15.121300 -26.042601 30.984100 28.631550 -5.525117 11.417223 -15.950700 -9.593210 -66.530403 -25.279200 -2.655530 59.910400 52.534901 32.302700 3.800250 20.059235 -1.807206 14.829958 71.868668 15.600338 24.659201 44.361099 -1.623670 -12.166200 43.651001 5.472730 13.171700 -11.845070 -11.513079 -8.027332 25.073711 0.185438 -1.571317 -9.164448 -0.679357 2.543513 -14.531142 -13.329741 -25.074001 55.535709 -0.547126 -14.241890 -12.768451 -0.466890 6.260579 
-22.663563 43.171520 -34.558788 12.160700 -6.085050 136.675995 -0.019530 -0.019644 -0.019419 0.019728 -0.030110 -0.751355 -0.082561 -10.192700 -0.106291 15.800100 -26.072300 30.664101 29.521986 -6.902299 12.527106 -15.481500 -9.876860 -66.868896 -26.076401 -2.509950 58.232700 52.465801 32.811798 4.089190 20.698097 -2.713477 16.171465 71.935799 15.236887 23.562300 45.839600 -1.737000 -16.619600 43.308102 6.666200 13.490300 -11.108500 -12.502412 -8.561361 23.941309 0.165934 -1.288901 -8.452669 -0.634575 2.444352 -13.026368 -13.834729 -24.181488 53.676037 -0.606552 -10.420075 -15.252179 -0.177893 4.392756 
-22.774103 43.138607 -34.278614 12.710000 -6.539100 136.798004 -0.019530 -0.019644 -0.019419 0.019766 -0.032847 -0.819660 -0.101835 -10.889900 -0.090216 16.235600 -25.800800 30.073299 29.755812 -7.926387 13.355270 -15.130100 -9.904250 -66.581596 -26.650200 -2.328530 56.014999 52.751099 33.601898 4.591350 20.856594 -3.304044 17.097929 71.338158 14.665564 23.254999 48.290001 -1.874660 -19.000200 42.613800 6.858860 13.328800 -11.070213 -13.167335 -9.702563 23.616692 0.165917 -1.344746 -8.018431 -0.569377 2.162099 -11.601152 -13.318818 -20.684711 51.305790 -0.683744 -5.763335 -18.091795 0.313056 1.880005 
-22.888912 43.067387 -33.867123 12.841500 -6.868440 137.429993 -0.019530 -0.019644 -0.019419 0.019777 -0.033629 -0.839176 -0.097655 -11.154300 -0.093703 16.652800 -25.360399 29.353001 29.243824 -8.446271 14.008515 -14.946800 -9.985160 -66.721397 -26.771200 -2.233640 54.706299 53.198601 34.122002 4.938800 20.457542 -3.816218 17.760246 70.513161 13.930057 24.008499 50.948200 -2.014840 -19.583000 42.576801 6.471200 13.183100 -11.668468 -13.358154 -11.127206 24.062054 0.195357 -1.959557 -7.860567 -0.506002 1.697649 -10.418034 -11.988147 -15.875730 48.769943 -0.713228 -1.963375 -20.527367 0.917716 -0.558043 
-22.981142 43.063786 -33.364635 12.708600 -6.964340 138.514008 -0.019530 -0.019644 -0.019419 0.019783 -0.034020 -0.848934 -0.099369 -11.048000 -0.073504 17.414301 -24.771200 28.389500 28.023418 -8.543624 14.599674 -14.978400 -10.307100 -67.760597 -26.378599 -2.257010 54.886101 53.743900 34.039398 4.940230 19.614782 -4.177255 18.293976 69.935448 13.074131 25.929600 52.846600 -2.104240 -18.991699 43.200802 6.411940 13.366400 -13.890688 -12.853951 -10.043282 26.604664 0.272913 -4.490320 -6.879548 -0.405218 1.228667 -9.489934 -10.377038 -11.958721 46.459072 -0.693270 -0.073100 -21.736355 1.374790 -2.284719 
-23.056973 43.013454 -32.842487 12.397900 -6.724900 139.904999 -0.019530 -0.019644 -0.019419 0.019783 -0.034020 -0.848934 -0.107387 -10.532200 -0.032127 18.708799 -23.913500 26.998100 26.285929 -8.349851 15.011251 -14.790100 -10.687500 -69.182999 -25.949301 -2.352260 56.017799 53.819000 33.740898 4.775730 18.265978 -4.294530 18.574451 70.079597 12.141479 29.011900 54.173302 -2.175090 -18.399401 43.930199 6.490020 13.634900 -16.481657 -11.492457 -6.186451 28.841932 0.350954 -6.595951 -5.581450 -0.328482 1.091159 -9.157645 -8.853962 -10.260126 45.344006 -0.663991 0.226638 -22.258226 1.621327 -3.212216 
-23.120667 42.872704 -32.370441 11.925300 -6.235190 141.212006 -0.019530 -0.019644 -0.019419 0.019766 -0.032847 -0.819660 -0.098907 -9.750780 0.001285 20.148800 -22.858500 25.309401 24.339344 -7.929212 15.114511 -14.361900 -10.781500 -69.918602 -25.813200 -2.409380 56.823502 53.359901 33.594501 4.648590 16.702112 -4.003941 18.456585 71.041313 11.175819 32.618900 55.193298 -2.229580 -18.414400 44.298599 6.249990 13.663000 -18.560999 -9.345017 0.438973 28.704590 0.331384 -5.817931 -3.992483 -0.304033 1.682386 -9.420123 -7.447022 -10.208086 45.261559 -0.644537 -0.409305 -22.611225 1.738593 -3.600682 
-23.178295 42.627796 -31.988716 11.123000 -5.680110 142.074005 -0.019530 -0.019644 -0.019419 0.019709 -0.028546 -0.712324 -0.082695 -8.730060 -0.017390 21.162300 -21.913401 23.757799 22.520992 -7.196125 14.751696 -13.834400 -10.511900 -69.365097 -25.912001 -2.393440 56.607800 52.731701 33.678902 4.632410 15.212551 -3.373875 17.821276 71.400879 10.220865 35.815800 55.982498 -2.276010 -18.602900 44.116299 5.222750 13.234900 -20.489069 -6.629759 10.096015 26.042105 0.220284 -3.089563 -1.578560 -0.273126 3.461836 -10.209767 -5.933134 -10.445510 45.724167 -0.634996 -1.494436 -23.224838 1.802347 -3.648628 
-23.227837 42.396381 -31.691467 9.818330 -5.173830 142.442001 -0.019530 -0.019644 -0.019419 0.019605 -0.018379 -0.458619 -0.047420 -6.548500 -0.089515 21.646000 -21.924500 21.942400 20.898396 -5.933155 13.930166 -13.567700 -10.112700 -67.907700 -25.912100 -2.342010 55.776798 52.478298 33.749802 4.653200 13.878256 -2.265922 16.624470 69.359703 9.320330 37.651100 56.089901 -2.272510 -18.124500 43.638599 3.459480 12.440000 -23.789658 -3.440509 21.673702 23.639101 0.174045 -1.782178 2.917400 0.008766 6.736553 -11.264171 -4.118258 -10.231668 45.709972 -0.598486 -2.606747 -23.820011 1.828450 -3.663488 
-23.282660 42.100925 -31.473532 7.938040 -4.568220 142.764008 -0.019530 -0.019644 -0.019419 0.019547 -0.018361 -0.214289 -0.026502 -4.172720 -0.140348 21.414900 -21.821699 20.605301 19.237986 -3.993174 12.642159 -13.273900 -9.695630 -66.310402 -25.743000 -2.308090 55.128601 52.241402 33.784599 4.646370 12.374247 -0.791719 14.812483 64.317299 8.370180 37.845001 55.675098 -2.242950 -16.834801 43.519901 0.356719 11.270100 -26.949776 -0.509946 33.090889 20.293659 0.101829 -1.375947 6.895043 0.459581 9.605975 -12.498652 -1.913645 -10.037642 45.435272 -0.586203 -3.564364 -24.640491 1.881433 -3.625396 
